<?xml version="1.0" encoding="UTF-8" standalone="no"?>
<svg
   xmlns:dc="http://purl.org/dc/elements/1.1/"
   xmlns:cc="http://creativecommons.org/ns#"
   xmlns:rdf="http://www.w3.org/1999/02/22-rdf-syntax-ns#"
   xmlns:svg="http://www.w3.org/2000/svg"
   xmlns="http://www.w3.org/2000/svg"
   id="svg42"
   xml:space="preserve"
   viewBox="155 167.5 600 200"
   height="400"
   width="600"
   version="1.1"><metadata
   id="metadata46"><rdf:RDF><cc:Work
       rdf:about=""><dc:format>image/svg+xml</dc:format><dc:type
         rdf:resource="http://purl.org/dc/dcmitype/StillImage" /></cc:Work></rdf:RDF></metadata>
<desc
   id="desc2">Created by Logonomy.ir</desc>
<defs
   id="defs4">
</defs>


<g
   id="921f201c-ee37-43ca-b7cf-d599486924ac"
   transform="matrix(1.2,0,0,1.2,371.57,246.08)">
		<g
   id="text8"
   style="font-style:normal;font-weight:normal;font-size:32px;font-family:Mj_Afaaq;white-space:pre;opacity:1;fill:#cddc39;fill-rule:nonzero;stroke:#ffffff;stroke-width:1;stroke-linecap:butt;stroke-linejoin:miter;stroke-miterlimit:4;stroke-dasharray:none;stroke-dashoffset:0;stroke-opacity:0"
   aria-label="ظروف خونگی"><path
     id="path48"
     style=""
     d="m 103.25188,-16.590625 q 1.29687,0.34375 1.29687,1.296875 v 7.4687502 q 0,1 -1.10937,1.375 h -5.437503 q -1.015625,-0.265625 -1.015625,-0.671875 -0.15625,0 -0.234375,-0.859375 v -7.0156252 q 0,-1.25 1.1875,-1.59375 z m 1.29687,15.2187502 v 7.578125 l -0.0469,0.1875 h 12.53125 v -7.40625 q 0,-0.828125 -0.82813,-0.828125 h -10.9375 q -0.71875,0.078125 -0.71875,0.46875 z m -7.796873,7.796875 v -10.0625 q 0.21875,-1.4375 1.34375,-1.4375 l 0.328125,-0.03125 h 24.671878 q 1.28125,0 1.67187,1.140625 v 12.875 q 0,0.609375 -0.95312,1.078125 l -0.4375,0.0625 H 94.267502 V 6.4250002 Z M 109.22063,-14.29375 h 0.625 q 1.21875,0 2.57812,1.296875 0.95313,1.21875 0.95313,2.578125 0,2.2968752 -2.39063,3.5468752 -0.59375,0.234375 -1.34375,0.234375 h -0.125 q -2.8125,0 -3.73437,-2.96875 l -0.0937,-0.8593752 q 0,-1.71875 1.46875,-3.015625 1.15625,-0.8125 2.0625,-0.8125 z" /><path
     id="path50"
     style=""
     d="m 91.705002,6.4250002 h 4.03125 V 10.05 h -4.03125 v 4.3125 q 0,0.953125 -1.28125,1.25 H 78.564377 l -0.01563,-0.01563 h -0.07813 v -3.625 h 4.125 q 1.71875,0 1.734375,-1.921875 V -3.0749998 q -0.375,-2.25 2.0625,-2.015625 h 4.03125 q 1.28125,0.34375 1.28125,1.25 z" /><path
     id="path52"
     style=""
     d="m 67.033127,-1.4968748 v 7.21875 q 0.140625,0.8125 0.765625,0.8125 h 0.234375 q 0.671875,-0.1875 0.671875,-0.65625 v -7.46875 q -0.171875,-0.71875 -0.796875,-0.71875 -0.6875,0 -0.875,0.8125 z m 1.671875,13.4687498 v -1.9375 h -7.703125 q -0.703125,0 -1.140625,-0.8124998 -0.140625,-0.171875 -0.140625,-0.578125 v -12.1875 q 0,-1.15625 1.203125,-1.484375 l 0.46875,-0.0625 h 13.390625 q 1.28125,0.34375 1.28125,1.25 V 14.3625 q 0,0.953125 -1.28125,1.25 h -14.96875 l -0.01563,-0.01563 h -0.07813 v -3.625 z" /><path
     id="path54"
     style=""
     d="m 48.142502,-16.559375 h 0.609375 q 1.21875,0 2.59375,1.296875 0.953125,1.21875 0.953125,2.5625 0,2.296875 -2.390625,3.5468752 -0.59375,0.25 -1.34375,0.25 h -0.140625 q -2.796875,0 -3.734375,-2.9843752 l -0.09375,-0.84375 q 0,-1.734375 1.484375,-3.015625 1.140625,-0.8125 2.0625,-0.8125 z m -0.3125,12.9218752 v 6.09375 q 0.140625,0.828125 0.78125,0.828125 h 0.234375 q 0.71875,-0.140625 0.71875,-0.953125 v -6.0625 q -0.171875,-0.90625 -0.859375,-0.90625 -0.78125,0 -0.875,1 z m -13.84375,10.0625 h 15.0625 q 0.484375,-0.109375 0.484375,-0.53125 v -0.09375 h -7.25 q -0.84375,0 -1.28125,-1.140625 v -10.84375 q 0.171875,-1.046875 1.28125,-1.296875 h 8.703125 q 0.1875,-0.015625 0.40625,-0.015625 h 4.125 q 0.203125,0 0.390625,0.015625 h 0.140625 q 0.453125,0 0.84375,0.421875 0.203125,0.1875 0.3125,0.421875 0.01563,0.03125 0.04687,0.0625 l 0.01563,0.0625 q 0.03125,0.078125 0.0625,0.15625 v 0.109375 l 0.01563,0.09375 v 11.875 q 0,0.125 -0.01563,0.234375 v 2.953125 q 0,0.609375 -0.953125,1.078125 l -0.4375,0.0625 h -28.84375 q -0.984375,0 -1.375,-1.0624998 v -15.25 q 0,-0.875 1.4375,-1.234375 h 4.484375 q 1.46875,0 1.828125,1.140625 v 12.09375 q 0,0.5625 0.515625,0.6875 z" /><path
     id="path56"
     style=""
     d="m 4.0800018,-14.29375 h 0.625 q 1.21875,0 2.578125,1.296875 0.953125,1.21875 0.953125,2.578125 0,2.2968752 -2.390625,3.5468752 -0.59375,0.234375 -1.34375,0.234375 h -0.125 q -2.796875,0 -3.73437497,-2.96875 l -0.09375,-0.8593752 q 0,-1.71875 1.48437497,-3.015625 1.140625,-0.8125 2.046875,-0.8125 z m 3.234375,20.7187502 v -3.734375 h -9 q -1.0625,-0.109375 -2.234375,-1.25 -0.953125,-1.18750001 -0.953125,-2.34375001 V -4.9187498 l 0.078125,-0.09375 H 12.392502 q 2.75,0 2.75,2.578125 v 8.859375 h 2.15625 V 10.05 H -9.7949982 V 6.4250002 Z" /><path
     id="path58"
     style=""
     d="m -19.154373,-1.6218748 v 7.34375 q 0.140625,0.8125 0.765625,0.8125 h 0.234375 q 0.671875,-0.1875 0.671875,-0.65625 v -7.59375 q -0.171875,-0.71875 -0.796875,-0.71875 -0.6875,0 -0.875,0.8125 z m 9.03125,8.046875 h 3.4531248 v 2.390625 h 0.109375 V 10.05 h -3.5624998 v 4.3125 q 0,0.953125 -1.28125,1.25 h -14.96875 l -0.01563,-0.01563 h -0.07813 v -3.625 h 8.984375 v -1.9375 h -7.703125 q -0.703125,0 -1.140625,-0.8124998 -0.140625,-0.171875 -0.140625,-0.578125 v -12.1875 q 0,-1.15625 1.203125,-1.484375 l 0.46875,-0.0625 h 13.390625 q 1.28125,0.34375 1.28125,1.25 z" /><path
     id="path60"
     style=""
     d="m -34.951248,-14.29375 h 0.609375 q 1.21875,0 2.59375,1.296875 0.953125,1.21875 0.953125,2.578125 0,2.2968752 -2.390625,3.5468752 -0.59375,0.234375 -1.34375,0.234375 h -0.140625 q -2.796875,0 -3.734375,-2.96875 l -0.09375,-0.8593752 q 0,-1.71875 1.484375,-3.015625 1.140625,-0.8125 2.0625,-0.8125 z M -42.060623,10.05 V 8.8468752 h 0.03125 v -2.421875 h 1.84375 q 1.859375,0 1.859375,-1.859375 v -7.8125 q 0,-1.03125 0.421875,-1.390625 0.453125,-0.46875 1.4375,-0.46875 h 4.109375 q 1.46875,0 1.828125,1.140625 v 12.875 q 0,0.609375 -0.953125,1.078125 l -0.4375,0.0625 z" /><path
     id="path62"
     style=""
     d="M -83.810623,10.05 V 6.4250002 h 32.453125 v -3.703125 h -28.015625 q -0.78125,0 -1.140625,-1.234375 v -5.125 q 0.296875,-1.375 1.28125,-1.375 h 2.90625 q 1.0625,0 5.875,-2.421875 4.828125,-2.4375 7.109375,-8.3750002 l 0.03125,-0.04687 h 8.234375 l 0.09375,0.09375 q -1.8125,7.0781252 -11.1875,10.6875002 v 0.0625 h 19.96875 q 2.140625,0 2.640625,1.71875 l 0.04687,0.609375 v 0.71875 l 0.03125,4.40625 v 3.984375 h 4.796875 V 10.05 h -0.15625 v 0 h -6.40625 v 0 z M -76.591873,-6.9187498 -76.357498,-10.2 q 4.453125,-1.171875 5.015625,-5.65625 l 1.078125,-0.03125 h 3.859375 l 0.07813,0.09375 q -0.75,3.796875 -3.78125,5.9218752 -3.03125,2.125 -6.484375,2.953125 z" /><path
     id="path64"
     style=""
     d="m -92.466873,10.05 q -0.671875,0 -1.15625,-1.0624998 l -0.04687,-0.703125 v -9.90625 q -0.03125,-0.46875 -0.953125,-1.09375 -0.96875,-0.484375 -1.671875,-0.484375 h -0.484375 q -1.359375,0 -2.390625,1.53125 v 10.578125 q 0,0.59375 -0.843752,1.046875 l -0.39062,0.09375 h -22.67188 q -0.65625,0 -1.14062,-1.0624998 v -12.65625 q 0,-0.9375 1.01562,-1.34375 l 0.26563,-0.0625 h 5.17187 q 0.65625,0 1.10938,0.71875 0.1875,0.328125 0.1875,0.484375 v 9.0625 q 0,0.890625 2.20312,1.203125 l 1.85938,0.125 h 1.42187 q 3.75,-0.1875 4.03125,-1.046875 v -8.8125 q 0,-1.3125 1.04688,-1.671875 l 0.28125,-0.0625 h 18.218747 q 1.09375,0 1.53125,1.15625 v 10.34375 h 3.546875 V 10.05 Z" /></g>
</g>
<g
   id="7e425f25-426a-4402-8bee-dba221f4ee95"
   transform="matrix(1.23,0,0,1.23,452.73,298.78)">
		<g
   id="text13"
   style="font-style:normal;font-weight:normal;font-size:20px;font-family:vazir;white-space:pre;opacity:1;fill:#cddc39;fill-rule:nonzero;stroke:#ffffff;stroke-width:1;stroke-linecap:butt;stroke-linejoin:miter;stroke-miterlimit:4;stroke-dasharray:none;stroke-dashoffset:0;stroke-opacity:0"
   aria-label="ZorofKhonegi"><path
     id="path67"
     style=""
     d="m -53.313358,4.7467971 h 8.134765 v 1.5332031 h -10.351562 v -1.40625 l 7.792969,-11.2695312 h -7.666016 v -1.5429688 h 9.912109 v 1.3769531 z" /><path
     id="path69"
     style=""
     d="m -43.48914,0.89914083 q 0,-1.15234375 0.332032,-2.12890623 0.341797,-0.9863281 0.957031,-1.7089844 0.625,-0.7226562 1.513672,-1.1328125 0.888672,-0.4101562 1.992187,-0.4101562 1.123047,0 2.011719,0.4101562 0.898438,0.4101563 1.523438,1.1328125 0.625,0.7226563 0.957031,1.7089844 0.332031,0.97656248 0.332031,2.12890623 V 1.1139846 q 0,1.1523437 -0.332031,2.1386719 -0.332031,0.9765625 -0.957031,1.6992187 -0.625,0.7128906 -1.513672,1.1230469 -0.888672,0.4003906 -2.001953,0.4003906 -1.113282,0 -2.001954,-0.4003906 -0.888671,-0.4101563 -1.513671,-1.1230469 -0.625,-0.7226562 -0.966797,-1.6992187 -0.332032,-0.9863282 -0.332032,-2.1386719 z m 1.816407,0.21484377 q 0,0.7910156 0.185547,1.4941406 0.185546,0.703125 0.55664,1.2402344 0.38086,0.5273437 0.9375,0.8398437 0.566406,0.3125 1.31836,0.3125 0.742187,0 1.308593,-0.3125 0.566407,-0.3125 0.9375,-0.8398437 0.371094,-0.5371094 0.556641,-1.2402344 0.195312,-0.703125 0.195312,-1.4941406 V 0.89914083 q 0,-0.78125 -0.195312,-1.484375 -0.185547,-0.71289063 -0.566406,-1.24023433 -0.371094,-0.5371094 -0.9375,-0.8496094 -0.566407,-0.3222656 -1.31836,-0.3222656 -0.742187,0 -1.298828,0.3222656 -0.55664,0.3125 -0.9375,0.8496094 -0.371094,0.5273437 -0.55664,1.24023433 -0.185547,0.703125 -0.185547,1.484375 z" /><path
     id="path71"
     style=""
     d="m -26.496952,-2.6653123 q -0.234375,-0.039063 -0.439453,-0.048828 -0.195313,-0.019531 -0.449219,-0.019531 -0.9375,0 -1.533203,0.4101563 -0.585938,0.4101562 -0.878906,1.1035156 v 7.5 h -1.806641 V -4.286406 h 1.757813 l 0.0293,1.2207031 q 0.410157,-0.6542969 1.025391,-1.0351563 0.615234,-0.3808593 1.494141,-0.3808593 0.195312,0 0.449218,0.048828 0.253907,0.039063 0.351563,0.087891 z" /><path
     id="path73"
     style=""
     d="m -25.325077,0.89914083 q 0,-1.15234375 0.332031,-2.12890623 0.341797,-0.9863281 0.957031,-1.7089844 0.625,-0.7226562 1.513672,-1.1328125 0.888672,-0.4101562 1.992188,-0.4101562 1.123047,0 2.011719,0.4101562 0.898437,0.4101563 1.523437,1.1328125 0.625,0.7226563 0.957031,1.7089844 0.332032,0.97656248 0.332032,2.12890623 V 1.1139846 q 0,1.1523437 -0.332032,2.1386719 -0.332031,0.9765625 -0.957031,1.6992187 -0.625,0.7128906 -1.513672,1.1230469 -0.888672,0.4003906 -2.001953,0.4003906 -1.113281,0 -2.001953,-0.4003906 -0.888672,-0.4101563 -1.513672,-1.1230469 -0.625,-0.7226562 -0.966797,-1.6992187 -0.332031,-0.9863282 -0.332031,-2.1386719 z m 1.816406,0.21484377 q 0,0.7910156 0.185547,1.4941406 0.185547,0.703125 0.556641,1.2402344 0.380859,0.5273437 0.9375,0.8398437 0.566406,0.3125 1.318359,0.3125 0.742188,0 1.308594,-0.3125 0.566406,-0.3125 0.9375,-0.8398437 0.371094,-0.5371094 0.55664,-1.2402344 0.195313,-0.703125 0.195313,-1.4941406 V 0.89914083 q 0,-0.78125 -0.195313,-1.484375 -0.185546,-0.71289063 -0.566406,-1.24023433 -0.371094,-0.5371094 -0.9375,-0.8496094 -0.566406,-0.3222656 -1.318359,-0.3222656 -0.742188,0 -1.298828,0.3222656 -0.556641,0.3125 -0.9375,0.8496094 -0.371094,0.5273437 -0.556641,1.24023433 -0.185547,0.703125 -0.185547,1.484375 z" /><path
     id="path75"
     style=""
     d="m -12.55164,6.2800002 v -9.1699219 h -1.669921 V -4.286406 h 1.669921 v -1.1132813 q 0,-0.8496094 0.234375,-1.5039062 0.244141,-0.6640625 0.69336,-1.1132813 0.449219,-0.4492187 1.09375,-0.6738281 0.6445311,-0.234375 1.4550779,-0.234375 0.625,0 1.2402344,0.1660156 l -0.097656,1.4648438 q -0.2050782,-0.039063 -0.46875,-0.058594 -0.2539063,-0.029297 -0.5078125,-0.029297 -0.8789063,0 -1.3574216,0.5175782 -0.478516,0.5078125 -0.478516,1.4648437 v 1.1132813 h 2.2558594 v 1.3964843 h -2.2558594 v 9.1699219 z" /><path
     id="path77"
     style=""
     d="M -2.5907021,-0.33132792 -4.3289833,1.4753127 v 4.8046875 h -1.875 v -14.21875 h 1.875 v 7.03125001 l 1.5429687,-1.71875001 4.7753907,-5.3125 h 2.265625 l -5.5957032,6.2792969 6.0351563,7.9394531 H 2.4483604 Z" /><path
     id="path79"
     style=""
     d="m 7.8585167,-3.0071092 q 0.5664062,-0.6933593 1.3574219,-1.0839843 0.7910154,-0.390625 1.7675784,-0.390625 0.771484,0 1.396484,0.2148437 0.625,0.2050781 1.064453,0.6738281 0.439453,0.4589844 0.673828,1.1914063 0.244141,0.7226562 0.244141,1.75781248 V 6.2800002 h -1.806641 v -6.94335937 q 0,-0.61523433 -0.136718,-1.04492183 -0.136719,-0.4394532 -0.410157,-0.7128907 -0.263672,-0.2734375 -0.664062,-0.4003906 -0.390625,-0.1269531 -0.908203,-0.1269531 -0.8789066,0 -1.5429691,0.46875 -0.6640625,0.46875 -1.0351562,1.2304687 V 6.2800002 H 6.0518761 v -15 h 1.8066406 z" /><path
     id="path81"
     style=""
     d="m 16.588985,0.89914083 q 0,-1.15234375 0.332032,-2.12890623 0.341797,-0.9863281 0.957031,-1.7089844 0.625,-0.7226562 1.513672,-1.1328125 0.888672,-0.4101562 1.992187,-0.4101562 1.123047,0 2.011719,0.4101562 0.898438,0.4101563 1.523438,1.1328125 0.625,0.7226563 0.957031,1.7089844 0.332031,0.97656248 0.332031,2.12890623 V 1.1139846 q 0,1.1523437 -0.332031,2.1386719 -0.332031,0.9765625 -0.957031,1.6992187 -0.625,0.7128906 -1.513672,1.1230469 -0.888672,0.4003906 -2.001953,0.4003906 -1.113282,0 -2.001954,-0.4003906 Q 18.512814,5.6647658 17.887814,4.9518752 17.262814,4.229219 16.921017,3.2526565 16.588985,2.2663283 16.588985,1.1139846 Z m 1.816407,0.21484377 q 0,0.7910156 0.185547,1.4941406 0.185546,0.703125 0.55664,1.2402344 0.38086,0.5273437 0.9375,0.8398437 0.566406,0.3125 1.31836,0.3125 0.742187,0 1.308593,-0.3125 0.566407,-0.3125 0.9375,-0.8398437 0.371094,-0.5371094 0.556641,-1.2402344 0.195312,-0.703125 0.195312,-1.4941406 V 0.89914083 q 0,-0.78125 -0.195312,-1.484375 -0.185547,-0.71289063 -0.566406,-1.24023433 -0.371094,-0.5371094 -0.9375,-0.8496094 -0.566407,-0.3222656 -1.31836,-0.3222656 -0.742187,0 -1.298828,0.3222656 -0.55664,0.3125 -0.9375,0.8496094 -0.371094,0.5273437 -0.55664,1.24023433 -0.185547,0.703125 -0.185547,1.484375 z" /><path
     id="path83"
     style=""
     d="m 30.182735,-4.286406 0.05859,1.328125 q 0.566406,-0.7128907 1.367188,-1.1132813 0.800781,-0.4101562 1.796875,-0.4101562 0.771484,0 1.396484,0.2148437 0.625,0.2050781 1.064453,0.6738281 0.439453,0.4589844 0.673828,1.1914063 0.244141,0.7226562 0.244141,1.75781248 V 6.2800002 h -1.806641 v -6.94335937 q 0,-0.61523433 -0.136718,-1.04492183 -0.136719,-0.4394532 -0.410157,-0.7128907 -0.263672,-0.2734375 -0.664062,-0.4003906 -0.390625,-0.1269531 -0.908203,-0.1269531 -0.878907,0 -1.542969,0.46875 -0.664063,0.46875 -1.035156,1.2304687 V 6.2800002 H 28.473751 V -4.286406 Z" /><path
     id="path85"
     style=""
     d="m 43.913204,6.4753127 q -1.103515,0 -2.001953,-0.3808594 Q 41.022579,5.713594 40.387814,5.0397658 39.753048,4.3561721 39.411251,3.4186721 39.069454,2.4811721 39.069454,1.3678908 V 0.95773458 q 0,-1.2890625 0.38086,-2.30468748 0.390625,-1.015625 1.035156,-1.7089844 0.644531,-0.6933594 1.474609,-1.0546875 0.830078,-0.3710937 1.728516,-0.3710937 1.132812,0 1.953125,0.4003906 0.820312,0.390625 1.347656,1.0839844 0.537109,0.6933593 0.791016,1.640625 0.253906,0.94726558 0.253906,2.06054683 V 1.5143752 h -7.158203 q 0.01953,0.7324219 0.234375,1.3671875 0.224609,0.6347656 0.625,1.1035156 0.410156,0.46875 0.976562,0.7421875 0.576172,0.2734375 1.298828,0.2734375 0.957032,0 1.621094,-0.390625 0.664063,-0.390625 1.16211,-1.0351562 l 1.103515,0.859375 q -0.253906,0.390625 -0.615234,0.7617187 -0.361328,0.3613282 -0.84961,0.6542969 -0.478515,0.2832031 -1.103515,0.4492188 -0.625,0.1757812 -1.416016,0.1757812 z m -0.224609,-9.4726562 q -0.546875,0 -1.00586,0.2050781 -0.458984,0.1953125 -0.820312,0.5761719 -0.361328,0.3808593 -0.605469,0.9472656 -0.234375,0.56640623 -0.322265,1.29882811 h 5.292968 v -0.13671875 q -0.0293,-0.52734375 -0.175781,-1.04492186 -0.136719,-0.5175781 -0.439453,-0.9277344 -0.292969,-0.4101562 -0.761719,-0.6640625 -0.46875,-0.2539062 -1.162109,-0.2539062 z" /><path
     id="path87"
     style=""
     d="m 49.684689,0.90890646 q 0,-1.2109375 0.283203,-2.19726566 0.292968,-0.9960937 0.830078,-1.6992187 0.546875,-0.7128906 1.318359,-1.1035156 0.771485,-0.390625 1.738281,-0.390625 1.00586,0 1.748047,0.3515625 0.742188,0.3515625 1.269532,1.015625 l 0.08789,-1.171875 H 58.61047 V 6.0553908 q 0,1.0449219 -0.332031,1.8554688 -0.322266,0.8203125 -0.917969,1.3769531 -0.595703,0.5664063 -1.416016,0.8593753 -0.820312,0.292968 -1.816406,0.292968 -0.410156,0 -0.947266,-0.09766 Q 52.653439,10.25461 52.106564,10.039766 51.569454,9.8346877 51.071407,9.4831252 50.57336,9.1315627 50.221798,8.6139846 l 0.9375,-1.0839844 q 0.332031,0.4101563 0.683594,0.6835938 0.351562,0.2734375 0.703125,0.4394531 0.361328,0.1660156 0.722656,0.234375 0.371094,0.078125 0.732422,0.078125 0.634765,0 1.152344,-0.1855469 Q 55.671017,8.604219 56.032345,8.2428908 56.403439,7.8815627 56.598751,7.354219 56.794064,6.8366408 56.794064,6.1432815 V 5.2253127 q -0.527344,0.6054688 -1.259766,0.9277344 -0.722656,0.3222656 -1.699219,0.3222656 -0.947265,0 -1.71875,-0.4003906 Q 51.35461,5.6745315 50.807735,4.9616408 50.270626,4.2389846 49.977657,3.2624221 49.684689,2.276094 49.684689,1.1139846 Z m 1.816406,0.20507814 q 0,0.7910156 0.15625,1.4941406 0.166015,0.6933594 0.498047,1.2109375 0.341797,0.5175781 0.86914,0.8203125 0.527344,0.3027344 1.259766,0.3027344 0.478516,0 0.859375,-0.1171875 0.390625,-0.1171875 0.693359,-0.3222656 0.3125,-0.2050782 0.546875,-0.4882813 0.234375,-0.2832031 0.410157,-0.625 v -4.8242187 q -0.175782,-0.3222657 -0.410157,-0.5957032 -0.234375,-0.2832031 -0.546875,-0.4882812 -0.302734,-0.2050781 -0.683593,-0.3125 -0.38086,-0.1171875 -0.84961,-0.1171875 -0.742187,0 -1.269531,0.3125 -0.527344,0.3027344 -0.869141,0.8300781 -0.341797,0.5273438 -0.507812,1.23046876 -0.15625,0.69335937 -0.15625,1.484375 z" /><path
     id="path89"
     style=""
     d="m 63.288204,6.2800002 h -1.80664 V -4.286406 h 1.80664 z M 61.335079,-7.0891404 q 0,-0.4394531 0.263672,-0.7421875 0.273438,-0.3027344 0.800781,-0.3027344 0.527344,0 0.800782,0.3027344 0.273437,0.3027344 0.273437,0.7421875 0,0.4394531 -0.273437,0.7324219 -0.273438,0.2929687 -0.800782,0.2929687 -0.527343,0 -0.800781,-0.2929687 -0.263672,-0.2929688 -0.263672,-0.7324219 z" /></g>
</g>
<g
   id="e84cfb13-24a9-4bdb-8177-530a4e9d43eb"
   transform="matrix(1.02,0,0,1.02,614.46,267.5)">
<g
   id="g39"
   style="vector-effect:non-scaling-stroke">
		<g
   id="Layer_1"
   transform="translate(-6.2,-33.12)">
<path
   id="path16"
   d="m 28.3,15.5 c 0,0 37.1,-13.7 81,0.2 0,0 -30.1,23.1 -32.9,58.6 0,0 -7,-26.1 -8.3,-45.5 0,0 -8.7,-2.9 -39.8,-13.3 z"
   transform="translate(-68.8,-41.88)"
   style="opacity:1;fill:#0db14b;fill-rule:nonzero;stroke:none;stroke-width:1;stroke-linecap:butt;stroke-linejoin:miter;stroke-miterlimit:4;stroke-dasharray:none;stroke-dashoffset:0" />
</g>
		<g
   id="g21"
   transform="translate(-36.5,-13.85)">
<path
   id="path19"
   d="m 7.6,77.6 c 0,0 15.7,-28.6 50.6,-43.6 0,0 -6.3,30.7 11.2,54.3 0,0 -18.5,-12.5 -29.8,-23.9 0,0.1 -7,3 -32,13.2 z"
   transform="translate(-38.5,-61.15)"
   style="opacity:1;fill:#909a34;fill-rule:nonzero;stroke:none;stroke-width:1;stroke-linecap:butt;stroke-linejoin:miter;stroke-miterlimit:4;stroke-dasharray:none;stroke-dashoffset:0" />
</g>
		<g
   id="g25"
   transform="translate(-18.1,35.75)">
<path
   id="path23"
   d="m 41.4,140.6 c 0,0 -13.2,-26.2 -6.5,-59.7 0,0 19.5,20.3 45.9,19.4 0,0 -18.6,7.3 -32.8,9.9 0,0 -1.5,6.7 -6.6,30.4 z"
   transform="translate(-56.9,-110.75)"
   style="opacity:1;fill:#a8aa2f;fill-rule:nonzero;stroke:none;stroke-width:1;stroke-linecap:butt;stroke-linejoin:miter;stroke-miterlimit:4;stroke-dasharray:none;stroke-dashoffset:0" />
</g>
		<g
   id="g29"
   transform="translate(17.6,32.67)">
<path
   id="path27"
   d="m 116.4,127.9 c 0,0 -23.6,3.3 -47.6,-10.6 0,0 20.7,-9.7 26.8,-30.2 0,0 0.8,16.2 -1,27.8 0.1,0 4.9,2.9 21.8,13 z"
   transform="translate(-92.6,-107.67)"
   style="opacity:1;fill:#00beac;fill-rule:nonzero;stroke:none;stroke-width:1;stroke-linecap:butt;stroke-linejoin:miter;stroke-miterlimit:4;stroke-dasharray:none;stroke-dashoffset:0" />
</g>
		<g
   id="g33"
   transform="translate(42.85,13.55)">
<path
   id="path31"
   d="m 138.4,76.5 c 0,0 -9.8,19.3 -32.5,29.9 0,0 3.5,-20.4 -8.6,-35.7 0,0 12.5,7.8 20.2,15.1 0,0.1 4.6,-1.9 20.9,-9.3 z"
   transform="translate(-117.85,-88.55)"
   style="opacity:1;fill:#00a9c5;fill-rule:nonzero;stroke:none;stroke-width:1;stroke-linecap:butt;stroke-linejoin:miter;stroke-miterlimit:4;stroke-dasharray:none;stroke-dashoffset:0" />
</g>
		<g
   id="g37"
   transform="translate(33.5,-19.15)">
<path
   id="path35"
   d="m 123.6,37 c 0,0 3.7,18.3 -6,37.7 0,0 -8.6,-15.7 -24.9,-19.6 0,0 12.7,-1.4 21.8,-0.6 0,0.1 2,-3.8 9.1,-17.5 z"
   transform="translate(-108.5,-55.85)"
   style="opacity:1;fill:#afcdf2;fill-rule:nonzero;stroke:none;stroke-width:1;stroke-linecap:butt;stroke-linejoin:miter;stroke-miterlimit:4;stroke-dasharray:none;stroke-dashoffset:0" />
</g>
</g>
</g>
</svg>