<?xml version="1.0" encoding="UTF-8" standalone="no"?>
<svg
   xmlns:dc="http://purl.org/dc/elements/1.1/"
   xmlns:cc="http://creativecommons.org/ns#"
   xmlns:rdf="http://www.w3.org/1999/02/22-rdf-syntax-ns#"
   xmlns:svg="http://www.w3.org/2000/svg"
   xmlns="http://www.w3.org/2000/svg"
   id="svg49"
   xml:space="preserve"
   viewBox="158 167.5 600 200"
   height="400"
   width="600"
   version="1.1"><metadata
   id="metadata53"><rdf:RDF><cc:Work
       rdf:about=""><dc:format>image/svg+xml</dc:format><dc:type
         rdf:resource="http://purl.org/dc/dcmitype/StillImage" /></cc:Work></rdf:RDF></metadata>
<desc
   id="desc2">Created by Logonomy.ir</desc>
<defs
   id="defs4">
</defs>


<g
   id="921f201c-ee37-43ca-b7cf-d599486924ac"
   transform="matrix(1.2,0,0,1.2,331.06,246.07)">
		<g
   id="text8"
   style="font-style:normal;font-weight:normal;font-size:32px;font-family:Mj_Afaaq;white-space:pre;opacity:1;fill:#4caf50;fill-rule:nonzero;stroke:#ffffff;stroke-width:1;stroke-linecap:butt;stroke-linejoin:miter;stroke-miterlimit:4;stroke-dasharray:none;stroke-dashoffset:0;stroke-opacity:0"
   aria-label="شوش بازار"><path
     id="path55"
     style=""
     d="m 71.360626,-21.934375 h 0.625 q 1.203125,0 2.578125,1.296875 0.953125,1.21875 0.953125,2.578125 0,2.296875 -2.390625,3.53125 -0.59375,0.234375 -1.34375,0.234375 h -0.140625 q -2.78125,0 -3.71875,-2.953125 l -0.109375,-0.859375 q 0,-1.71875 1.484375,-3 1.15625,-0.828125 2.0625,-0.828125 z m -3.96875,7.75 q 2.390625,0 3.59375,2.578125 l 0.171875,1.046875 v 0.4375 q 0,1.7187502 -1.796875,3.0625002 -0.765625,0.53125 -2.015625,0.53125 -2.296875,0 -3.359375,-1.96875 -0.46875,-0.765625 -0.46875,-1.484375 V -10.7 q 0,-1.203125 1.1875,-2.4375 1.109375,-1.046875 2.6875,-1.046875 z m 8.65625,0 q 2.171875,0 3.4375,2.1875 0.34375,0.71875 0.34375,1.6875 0,2.2343752 -2.15625,3.4375002 -0.578125,0.34375 -1.671875,0.34375 -2.1875,0 -3.296875,-1.875 -0.53125,-0.828125 -0.53125,-1.9531252 0,-2.171875 2.0625,-3.40625 0.8125,-0.421875 1.8125,-0.421875 z M 65.063751,10.05 v 0.04687 h -7.625 V 10.05 h -5.71875 V 8.8156252 h 0.01563 v -2.390625 h 5.703125 v -9.984375 q 0,-1.125 1.09375,-1.484375 l 0.296875,-0.046875 h 5.015625 q 0.890625,0 1.328125,1.0625 l 0.04687,0.421875 v 10.03125 h 2.546875 v -10.21875 q 0,-0.84375 1.140625,-1.296875 h 5.3125 q 0.796875,0 1.28125,1.0625 l 0.0625,0.75 v 9.703125 h 2.421875 v -9.796875 q 0,-1.3125 1.046875,-1.671875 l 0.296875,-0.046875 h 5.171875 q 0.640625,0 1.09375,0.71875 0.1875,0.3125 0.1875,0.484375 v 12.703125 q -0.34375,1.046875 -1.546875,1.2031248 H 81.313751 V 10.05 Z" /><path
     id="path57"
     style=""
     d="m 43.173126,-1.6218748 v 7.34375 q 0.140625,0.8125 0.765625,0.8125 h 0.234375 q 0.671875,-0.1875 0.671875,-0.65625 v -7.59375 q -0.171875,-0.71875 -0.796875,-0.71875 -0.6875,0 -0.875,0.8125 z m 9.03125,8.046875 h 3.453125 v 2.390625 h 0.109375 V 10.05 h -3.5625 v 4.3125 q 0,0.953125 -1.28125,1.25 h -14.96875 l -0.01563,-0.01563 h -0.07813 v -3.625 h 8.984375 v -1.9375 h -7.703125 q -0.703125,0 -1.140625,-0.8124998 -0.140625,-0.171875 -0.140625,-0.578125 v -12.1875 q 0,-1.15625 1.203125,-1.484375 l 0.46875,-0.0625 h 13.390625 q 1.28125,0.34375 1.28125,1.25 z" /><path
     id="path59"
     style=""
     d="m 21.204376,-21.934375 h 0.625 q 1.21875,0 2.578125,1.296875 0.953125,1.21875 0.953125,2.578125 0,2.296875 -2.390625,3.53125 -0.59375,0.234375 -1.328125,0.234375 h -0.15625 q -2.78125,0 -3.71875,-2.953125 l -0.109375,-0.859375 q 0,-1.71875 1.5,-3 1.140625,-0.828125 2.046875,-0.828125 z m -3.96875,7.75 q 2.390625,0 3.59375,2.578125 l 0.1875,1.046875 v 0.4375 q 0,1.7187502 -1.8125,3.0625002 -0.765625,0.53125 -2.015625,0.53125 -2.28125,0 -3.34375,-1.96875 -0.484375,-0.765625 -0.484375,-1.484375 V -10.7 q 0,-1.203125 1.1875,-2.4375 1.109375,-1.046875 2.6875,-1.046875 z m 8.65625,0 q 2.171875,0 3.453125,2.1875 0.328125,0.71875 0.328125,1.6875 0,2.2343752 -2.15625,3.4375002 -0.578125,0.34375 -1.671875,0.34375 -2.1875,0 -3.296875,-1.875 -0.53125,-0.828125 -0.53125,-1.9531252 0,-2.171875 2.0625,-3.40625 0.8125,-0.421875 1.8125,-0.421875 z M 13.032501,6.4250002 h 2.421875 v -10.21875 q 0,-0.84375 1.140625,-1.296875 h 5.3125 q 0.796875,0 1.296875,1.0625 l 0.04687,0.75 v 9.703125 h 2.4375 v -9.796875 q 0,-1.3125 1.046875,-1.671875 l 0.296875,-0.046875 h 5.15625 q 0.640625,0 1.109375,0.71875 0.1875,0.3125 0.1875,0.484375 v 12.765625 q 0,0.5625 -0.8125,1.046875 l -0.4375,0.09375 H 29.501251 V 10.05 H 13.048126 v 4.453125 q 0,0.734375 -1.15625,1.15625 h -22.15625 q -1.078125,0 -1.4375,-1.0625 V -3.8406248 q 0,-0.6875 1.046875,-1.1875 l 0.53125,-0.0625 h 4.6406252 q 1.53125,0.234375 1.53125,1.4375 V 12.05 h 9.25 l -0.03125,-15.8906248 q 0,-0.84375 1.140625,-1.28125 h 5.3124998 q 0.796875,0 1.296875,1.046875 z" /><path
     id="path61"
     style=""
     d="m -26.936249,11.6125 h 0.625 q 1.21875,0 2.578125,1.296875 0.953125,1.234375 0.953125,2.59375 0,2.296875 -2.390625,3.53125 -0.59375,0.234375 -1.34375,0.234375 h -0.125 q -2.8125,0 -3.734375,-2.96875 l -0.09375,-0.859375 q 0,-1.71875 1.46875,-3.015625 1.15625,-0.8125 2.0625,-0.8125 z M -31.983124,10.05 V 8.8468752 h 0.03125 v -2.421875 h 1.84375 q 1.859375,0 1.859375,-1.859375 v -7.8125 q 0,-1.03125 0.421875,-1.390625 0.453125,-0.46875 1.4375,-0.46875 h 4.109375 q 1.46875,0 1.828125,1.140625 v 12.875 q 0,0.609375 -0.953125,1.078125 l -0.4375,0.0625 z" /><path
     id="path63"
     style=""
     d="m -39.639374,10.05 q -1.140625,0 -1.4375,-1.2031248 V -14.715625 q 0.40625,-1.140625 1.28125,-1.140625 h 5.125 q 0.65625,0 1.15625,0.765625 0.140625,0.171875 0.140625,0.5625 V 4.5187502 q 0,1.90625 1.921875,1.90625 h 1.046875 V 10.05 Z" /><path
     id="path65"
     style=""
     d="m -50.701874,-13.840625 h 0.625 q 1.203125,0 2.578125,1.296875 0.953125,1.234375 0.953125,2.5781252 0,2.296875 -2.390625,3.546875 -0.59375,0.234375 -1.34375,0.234375 h -0.140625 q -2.796875,0 -3.71875,-2.96875 L -54.248749,-10.0125 q 0,-1.71875 1.484375,-3.015625 1.140625,-0.8125 2.0625,-0.8125 z m -5,25.8125 q 1.71875,0 1.734375,-1.921875 V -3.0749998 q -0.375,-2.25 2.0625,-2.015625 h 4.03125 q 1.28125,0.34375 1.28125,1.25 V 14.3625 q 0,0.953125 -1.28125,1.25 h -11.859375 l -0.01563,-0.01563 h -0.07813 v -3.625 z" /><path
     id="path67"
     style=""
     d="m -68.670624,-15.85625 h 5.125 q 0.65625,0 1.15625,0.765625 0.140625,0.171875 0.140625,0.5625 V 8.7062502 q 0,1.046875 -1.25,1.3437498 h -5.015625 q -1.140625,0 -1.4375,-1.2031248 V -14.715625 q 0.40625,-1.140625 1.28125,-1.140625 z" /><path
     id="path69"
     style=""
     d="m -81.451874,11.971875 q 1.71875,0 1.734375,-1.921875 V -3.0749998 q -0.375,-2.25 2.0625,-2.015625 h 4.03125 q 1.28125,0.34375 1.28125,1.25 V 14.3625 q 0,0.953125 -1.28125,1.25 h -11.859375 l -0.01563,-0.01563 h -0.07813 v -3.625 z" /></g>
</g>
<g
   id="7e425f25-426a-4402-8bee-dba221f4ee95"
   style="filter:url(#SVGID_2)"
   transform="matrix(1.23,0,0,1.23,299.59,299.89)">
<filter
   width="1.48"
   x="-0.23999999"
   height="3.4400001"
   y="-1.22"
   id="SVGID_2">
	<feGaussianBlur
   id="feGaussianBlur11"
   stdDeviation="4.5"
   in="SourceAlpha" />
	<feOffset
   id="feOffset13"
   result="oBlur"
   dy="14"
   dx="0" />
	<feFlood
   id="feFlood15"
   flood-opacity="1"
   flood-color="rgb(0,0,0)" />
	<feComposite
   id="feComposite17"
   operator="in"
   in2="oBlur" />
	<feMerge
   id="feMerge23">
		<feMergeNode
   id="feMergeNode19" />
		<feMergeNode
   id="feMergeNode21"
   in="SourceGraphic" />
	</feMerge>
</filter>
		<g
   id="text28"
   style="font-style:normal;font-weight:normal;font-size:20px;font-family:Laurendra;white-space:pre;opacity:0.8;fill:#417744;fill-rule:nonzero;stroke:#ffffff;stroke-width:1;stroke-linecap:butt;stroke-linejoin:miter;stroke-miterlimit:4;stroke-dasharray:none;stroke-dashoffset:0;stroke-opacity:0"
   aria-label="ShoshBazar"><path
     id="path72"
     style=""
     d="m -21.839999,-0.81999979 c 0.94,-0.26000001 1.76,-0.40000001 2.42,-0.40000001 0.28,0 0.62,0.04 1.02,0.1 -0.86,1.24000001 -1.86,2.3 -3.04,3.2 -1.3,1 -2.64,1.66 -4.02,1.98 l -1.64,0.28 c -0.64,0.14 -0.96,0.38 -0.96,0.72 0,0.14 0.06,0.3 0.16,0.48 0.18,0.34 0.5,0.52 0.96,0.52 0.24,0 0.52,-0.04 0.82,-0.12 0.1,-0.02 0.5,-0.16 1.2,-0.4 1.68,-0.54 3.24,-1.3 4.66,-2.3 1.52,-1.06 2.68,-2.27999999 3.48,-3.61999999 0.34,-0.56 0.52,-1.02000001 0.52,-1.38000001 0,-0.74 -0.68,-1 -1.9,-1 -0.7,0 -1.88,0.16 -3.54,0.46 -1.66,0.3 -2.7,0.44 -3.16,0.44 h -0.32 c 1.06,-1.22 2.16,-2.28 3.3,-3.14 1.34,-1.02 2.68,-1.8 4.02,-2.3 -0.16,-0.54 -0.5,-0.8 -1,-0.8 -0.68,0 -1.64,0.46 -2.88,1.38 l -2.36,1.9 -1.64,1.22 c -1.38,1.1 -2.08,2.04 -2.08,2.82000001 0,0.22 0.06,0.44 0.2,0.66 0.22,0.38 0.62,0.56 1.16,0.56 0.42,0 0.96,-0.1 1.66,-0.32 0.36,-0.1 0.86,-0.28 1.52,-0.5 z" /><path
     id="path74"
     style=""
     d="m -15.712187,-9.0199998 c -0.26,0.56 -0.32,1.04 -0.32,1.74 0,0.42 0.16,1.54 0.46,3.36 0.14,0.78 0.2,1.46 0.2,2.02 0,0.18 -0.04,0.44 -0.06,0.78 -0.18,1.38000001 -0.44,2.98 -0.44,4.02 0,1.18 0.22,2.26 0.72,3.38 0.74,-0.28 1.16,-0.96 1.24,-2.02 0.1,-1.08 0.22,-1.8 0.38,-2.16 0.34,-0.78 0.9,-1.55999999 1.64,-2.31999999 0.82,-0.82000001 1.62,-1.36000001 2.44,-1.64000001 0.34,-0.12 0.62,-0.18 0.84,-0.18 0.38,0 0.64,0.16 0.78,0.46 0.06,0.16 0.16,0.56 0.28,1.20000001 0.02,0.1 0.04,0.24 0.1,0.44 v 0.7 c 0,0.31999999 -0.02,0.79999999 -0.08,1.45999999 -0.04,0.66 -0.06,1.14 -0.06,1.46 0,0.82 0.08,1.5 0.3,2.12 0.38,0.94 0.98,1.26 1.92,1.26 l 3.52,-0.78 c -0.12,-0.46 -0.3,-0.78 -0.54,-0.96 -0.24,-0.18 -0.88,-0.36 -1.9,-0.52 -0.34,-0.06 -0.42,0.1 -0.48,0.16 -0.06,0 -0.16,-0.06 -0.34,-0.16 -0.54,-0.32 -0.54,-0.78 -0.54,-1.72 0,-0.24 -0.06,-1.18 -0.2,-2.79999999 -0.04,-0.54 -0.06,-1.1 -0.06,-1.64000001 0,-1.78 -0.72,-2.54 -1.84,-2.54 -0.82,0 -1.9,0.38 -3.26,1.16 -0.7,0.4 -1.64,1.02 -2.78,1.86000001 -0.24,-0.88000001 -0.2,-1.38000001 -0.2,-1.86000001 0,-0.22 0,-0.58 0.02,-1.04 0.02,-0.46 0.02,-0.82 0.02,-1.04 0,-0.72 0,-1.12 -0.16,-1.86 -0.06,-0.38 -0.18,-0.78 -0.32,-1.16 -0.22,-0.54 -0.46,-0.84 -0.72,-0.94 l -0.28,-0.24 z" /><path
     id="path76"
     style=""
     d="m 6.815938,-4.3199998 c -0.5,-0.08 -0.86,-0.12 -1.1,-0.12 -0.38,0 -0.92,0.2 -1.62,0.6 -1.34,0.76 -2.68,1.9 -4.05999997,3.44000001 C -1.584062,1.4200002 -2.404062,2.9600002 -2.404062,4.2600002 v 0.3 c 0,1.12 0.38,1.58 1.08,1.58 0.34000003,0 0.82000003,-0.14 1.48000003,-0.44 0.85999997,-0.38 1.35999997,-0.58 1.49999997,-0.64 2.02,-0.7 3.62,-1.54 4.82,-2.5 1.58,-1.26 2.38,-2.69999999 2.38,-4.28 0,-0.72 -0.12,-1.66 -0.76,-2.12 -0.32,-0.24 -0.74,-0.4 -1.28,-0.48 z m 0.54,2.7 c 0,1.40000001 -1.02,2.72 -3.04,3.98 -1.82,1.14 -3.51999997,1.7 -5.09999997,1.7 0.26,-0.82 0.78,-1.72 1.52,-2.72 C 1.495938,0.32000021 2.255938,-0.41999979 2.995938,-0.87999979 l 1.72,-1.12000001 c 0.8,-0.48 1.4,-0.72 1.82,-0.72 0.54,0 0.82,0.3 0.82,1.1 z" /><path
     id="path78"
     style=""
     d="m 9.5356255,0.86000021 c -0.1,0.27999999 -0.14,0.51999999 -0.14,0.73999999 0,0.54 0.24,0.92 0.7000005,1.14 0.38,0.18 0.96,0.28 1.74,0.28 0.54,0 1.42,-0.08 2.64,-0.22 1.22,-0.16 2.02,-0.24 2.42,-0.24 h 0.22 c 0.1,0 0.2,0 0.3,0.02 -0.14,0.14 -1.16,0.8 -3.1,1.98 -0.72,0.44 -1.22,0.94 -1.52,1.48 0.46,0.18 0.86,0.28 1.24,0.28 0.38,0 0.82,-0.12 1.32,-0.34 0.3,-0.12 0.8,-0.34 1.5,-0.68 1,-0.4 1.72,-0.72 2.16,-0.96 0.84,-0.46 1.38,-0.96 1.64,-1.5 0.14,-0.32 0.22,-0.6 0.22,-0.86 0,-0.46 -0.26,-0.78 -0.8,-0.96 -0.38,-0.11999999 -0.96,-0.17999999 -1.76,-0.17999999 -0.26,0.02 -0.52,0.02 -0.76,0.02 h -0.7 c -0.42,0 -1,0.02 -1.72,0.08 -0.72,0.06 -1.24,0.08 -1.56,0.08 -0.5,0 -1.14,-0.06 -1.6,-0.15999999 0.78,-0.64 1.6,-1.2 2.46,-1.7 0.94,-0.54000001 1.84,-0.96000001 2.72,-1.26000001 l 1.78,-0.48 c 0.82,-0.26 1.24,-0.58 1.24,-0.92 0,-0.24 -0.2,-0.52 -0.58,-0.82 -0.32,-0.22 -0.68,-0.34 -1.1,-0.34 -0.56,0 -1.26,0.2 -2.1,0.62 -0.58,0.32 -1.14,0.64 -1.72,0.94 -2.14,1.16 -3.38,1.88 -3.72,2.14000001 -0.76,0.6 -1.2400005,1.2 -1.4200005,1.82 z" /><path
     id="path80"
     style=""
     d="m 22.256563,-9.0199998 c -0.26,0.56 -0.32,1.04 -0.32,1.74 0,0.42 0.16,1.54 0.46,3.36 0.14,0.78 0.2,1.46 0.2,2.02 0,0.18 -0.04,0.44 -0.06,0.78 -0.18,1.38000001 -0.44,2.98 -0.44,4.02 0,1.18 0.22,2.26 0.72,3.38 0.74,-0.28 1.16,-0.96 1.24,-2.02 0.1,-1.08 0.22,-1.8 0.38,-2.16 0.34,-0.78 0.9,-1.55999999 1.64,-2.31999999 0.82,-0.82000001 1.62,-1.36000001 2.44,-1.64000001 0.34,-0.12 0.62,-0.18 0.84,-0.18 0.38,0 0.64,0.16 0.78,0.46 0.06,0.16 0.16,0.56 0.28,1.20000001 0.02,0.1 0.04,0.24 0.1,0.44 v 0.7 c 0,0.31999999 -0.02,0.79999999 -0.08,1.45999999 -0.04,0.66 -0.06,1.14 -0.06,1.46 0,0.82 0.08,1.5 0.3,2.12 0.38,0.94 0.98,1.26 1.92,1.26 l 3.52,-0.78 c -0.12,-0.46 -0.3,-0.78 -0.54,-0.96 -0.24,-0.18 -0.88,-0.36 -1.9,-0.52 -0.34,-0.06 -0.42,0.1 -0.48,0.16 -0.06,0 -0.16,-0.06 -0.34,-0.16 -0.54,-0.32 -0.54,-0.78 -0.54,-1.72 0,-0.24 -0.06,-1.18 -0.2,-2.79999999 -0.04,-0.54 -0.06,-1.1 -0.06,-1.64000001 0,-1.78 -0.72,-2.54 -1.84,-2.54 -0.82,0 -1.9,0.38 -3.26,1.16 -0.7,0.4 -1.64,1.02 -2.78,1.86000001 -0.24,-0.88000001 -0.2,-1.38000001 -0.2,-1.86000001 0,-0.22 0,-0.58 0.02,-1.04 0.02,-0.46 0.02,-0.82 0.02,-1.04 0,-0.72 0,-1.12 -0.16,-1.86 -0.06,-0.38 -0.18,-0.78 -0.32,-1.16 -0.22,-0.54 -0.46,-0.84 -0.72,-0.94 l -0.28,-0.24 z" /><path
     id="path82"
     style=""
     d="m 39.624688,-4.5799998 c -0.32,-1 -0.5,-1.54 -0.56,-1.64 -0.26,-0.38 -0.8,-0.58 -1.62,-0.58 -0.02,0.08 -0.02,0.46 -0.04,1.14 -0.02,0.66 -0.08,1.16 -0.2,1.48 l -0.3,0.8 c -0.02,0.04 -0.02,0.1 -0.02,0.18 0,0.06 0.1,0.34 0.3,0.84 0.24,0.62 0.28,0.96 0.28,1.74000001 0,0.26 -0.06,1.02 -0.18,2.27999999 -0.06,0.56 -0.1,1.04 -0.1,1.42 v 0.42 c 0,1.26 0.12,2.22 0.82,2.54 0.22,0.1 0.42,0.14 0.64,0.14 0.32,-0.04 0.64,-0.08 0.98,-0.14 l 0.26,0.24 h 0.28 l 0.28,-0.24 h 0.26 c 0.96,-0.14 2.34,-0.54 4.14,-1.16 1.26,-0.44 2.04,-0.72 2.38,-0.82 1.26,-0.38 2.28,-0.86 3.06,-1.44 0.98,-0.74 1.48,-1.56 1.48,-2.47999999 0,-0.32 -0.06,-0.66 -0.18,-1.02 -0.34,-0.86000001 -1.34,-1.30000001 -2.96,-1.34000001 -1.62,-0.06 -2.54,-0.1 -2.74,-0.14 l 1.4,-1.06 c 0.54,-0.42 0.8,-0.86 0.8,-1.32 0,-0.06 -0.02,-0.16 -0.06,-0.32 -0.16,-0.88 -0.52,-1 -1.62,-1 -0.9,0 -2.06,0.2 -3.44,0.58 -1.9,0.54 -3.02,0.84 -3.34,0.9 z m -0.28,9.14 c -0.06,-0.2 -0.08,-0.34 -0.08,-0.4 v -0.3 c 0,-1.34 0.92,-2.44 2.74,-3.29999999 1.62,-0.78 3.44,-1.16 5.42,-1.16 1.12,0 2.04,0.16 2.78,0.48 -0.6,0.86 -1.56,1.63999999 -2.9,2.33999999 -1.12,0.58 -2.46,1.08 -4.04,1.52 -1.22,0.34 -2.54,0.6 -3.92,0.82 z m 0.28,-4.93999999 c -0.06,-0.2 -0.08,-0.42 -0.08,-0.64000001 0,-0.84 0.44,-1.5 1.3,-1.98 0.74,-0.42 1.66,-0.62 2.72,-0.62 0.18,0 0.38,0.02 0.68,0.04 -0.3,0.18 -1.26,0.86 -2.86,2.08 -0.6,0.46 -1.18,0.84000001 -1.76,1.12000001 z" /><path
     id="path84"
     style=""
     d="m 61.354063,-3.3399998 c 0.26,-0.08 0.52,-0.12 0.74,-0.12 0.7,0 1.22,0.38 1.58,1.16 0.26,0.58 0.38,1.32000001 0.38,2.18000001 -1.94,0.2 -3.22,0.34 -3.8,0.44 -1.42,0.22 -2.7,0.58 -3.8,1.03999999 -0.9,0.36 -1.68,0.78 -2.34,1.26 -0.94,0.68 -1.4,1.34 -1.4,1.96 0,0.26 0.08,0.5 0.22,0.72 0.38,0.64 0.88,1.1 1.54,1.4 0.56,0.26 1.26,0.38 2.08,0.38 1.14,0 2.64,-0.3 4.46,-0.9 0.96,-0.32 2.24,-0.78 3.86,-1.38 0.18,0.5 0.38,0.88 0.56,1.12 0.3,0.4 0.68,0.6 1.16,0.6 0.58,0 1.02,-0.8 1.02,-1.46 0,-0.46 -0.22,-1.08 -0.64,-1.88 -0.42,-0.82 -0.68,-1.42 -0.74,-1.82 -0.16,-1.05999999 -0.38,-2.07999999 -0.68,-3.04 -0.34,-1.14 -0.74,-2.12 -1.22,-2.9 -0.42,-0.66 -0.92,-0.92 -1.64,-0.92 -0.58,0 -1.38,0.26 -2.44,0.76 -0.32,0.14 -0.78,0.36 -1.36,0.66 -0.58,0.22 -1.14,0.46 -1.7,0.68 -1.36,0.6 -2.04,1.22 -2.04,1.86 0,0.42 0.38,0.90000001 0.56,1.06000001 0.1,0.06 0.2,0.1 0.34,0.1 0.18,0 0.42,-0.12 0.7,-0.34 l 0.8,-0.64000001 c 0.7,-0.48 1.3,-0.86 1.82,-1.14 0.68,-0.36 1.34,-0.64 1.98,-0.84 z m -6.54,8.14 c 0.22,-0.9 0.96,-1.64 2.2,-2.24 1.26,-0.62 2.58,-0.92 3.98,-0.92 1.62,0 2.96,0.46 3.62,1.44 -2.24,1.28 -4.76,2.1 -7.22,2.1 -0.86,0 -1.84,-0.14 -2.58,-0.38 z" /><path
     id="path86"
     style=""
     d="m 76.816251,-5.7999998 -2.16,0.96 c -1.5,0.66 -2.68,1.16 -3.54,1.5 l -1.26,0.42 c -0.98,0.34 -1.46,0.74 -1.46,1.16 0,0.4 0.4,1.00000001 0.96,1.00000001 l 2.32,-1.10000001 c 1.12,-0.54 2.46,-1.22 3.52,-1.48 0,0.66 -0.12,1.28 -0.38,1.82 -0.32,0.70000001 -1.2,1.92000001 -2.62,3.62 -0.52,0.72 -1.02,1.44 -1.52,2.16 -0.7,1 -1,1.76 -0.92,2.26 0.1,0.62 0.36,0.92 0.74,0.92 0.24,0 0.58,-0.12 1,-0.36 l 0.98,-0.56 c 1,-0.54 2.22,-1.1 3.66,-1.7 l 3.66,-1.5 c 0.66,-0.16 1.34,-0.32 2,-0.5 0.94,-0.24 1.46,-0.48 1.56,-0.72 0.06,-0.14 0.08,-0.28 0.08,-0.42 0,-0.54 -0.5,-0.73999999 -1.24,-0.73999999 -0.36,0 -0.74,0.06 -1.12,0.19999999 -0.38,0.12 -1.26,0.48 -2.68,1.1 -2.06,0.9 -3.62,1.36 -4.64,1.36 -0.2,0 -0.36,0 -0.46,-0.02 0.42,-0.78 0.88,-1.46 1.4,-2 0.5,-0.73999999 1.12,-1.71999999 1.86,-2.94 l 0.86,-1.46 c 0.38,-0.72 0.56,-1.3 0.56,-1.74 0,-0.46 -0.16,-0.78 -0.62,-1 l -0.26,-0.24 z" /><path
     id="path88"
     style=""
     d="m 93.111876,-3.3399998 c 0.26,-0.08 0.52,-0.12 0.74,-0.12 0.7,0 1.22,0.38 1.58,1.16 0.26,0.58 0.38,1.32000001 0.38,2.18000001 -1.94,0.2 -3.22,0.34 -3.8,0.44 -1.42,0.22 -2.7,0.58 -3.8,1.03999999 -0.9,0.36 -1.68,0.78 -2.34,1.26 -0.94,0.68 -1.4,1.34 -1.4,1.96 0,0.26 0.08,0.5 0.22,0.72 0.38,0.64 0.88,1.1 1.54,1.4 0.56,0.26 1.26,0.38 2.08,0.38 1.14,0 2.64,-0.3 4.46,-0.9 0.96,-0.32 2.24,-0.78 3.86,-1.38 0.18,0.5 0.38,0.88 0.56,1.12 0.3,0.4 0.68,0.6 1.16,0.6 0.58,0 1.02,-0.8 1.02,-1.46 0,-0.46 -0.22,-1.08 -0.64,-1.88 -0.42,-0.82 -0.68,-1.42 -0.74,-1.82 -0.16,-1.05999999 -0.38,-2.07999999 -0.68,-3.04 -0.34,-1.14 -0.74,-2.12 -1.22,-2.9 -0.42,-0.66 -0.92,-0.92 -1.64,-0.92 -0.58,0 -1.38,0.26 -2.44,0.76 -0.32,0.14 -0.78,0.36 -1.36,0.66 -0.58,0.22 -1.14,0.46 -1.7,0.68 -1.36,0.6 -2.04,1.22 -2.04,1.86 0,0.42 0.38,0.90000001 0.56,1.06000001 0.1,0.06 0.2,0.1 0.34,0.1 0.18,0 0.42,-0.12 0.7,-0.34 l 0.8,-0.64000001 c 0.7,-0.48 1.3,-0.86 1.82,-1.14 0.68,-0.36 1.34,-0.64 1.98,-0.84 z m -6.54,8.14 c 0.22,-0.9 0.96,-1.64 2.2,-2.24 1.26,-0.62 2.58,-0.92 3.98,-0.92 1.62,0 2.96,0.46 3.62,1.44 -2.24,1.28 -4.76,2.1 -7.22,2.1 -0.86,0 -1.84,-0.14 -2.58,-0.38 z" /><path
     id="path90"
     style=""
     d="m 100.69406,-1.3599998 c -0.32,1.36000000980835 -0.46,2.26000001 -0.46,3.62 0,1.14 0.16,2.02 0.48,2.68 0.4,0.8 1.04,1.24 1.9,1.34 l 0.08,-0.4 v -0.78 c -0.02,-0.3 -0.02,-0.6 -0.02,-0.9 v -0.96 c 0,-1.66 0.24,-2.77999999 1.28,-3.11999999 0.66,-0.22 1.7,-0.42 3.12,-0.56 1.42,-0.16 2.46,-0.38 3.12,-0.68000001 -0.8,-0.74 -1.78,-0.96 -3,-0.96 -0.3,0 -0.76,0.02 -1.4,0.06 -0.62,0.04 -1.1,0.06 -1.4,0.06 -0.54,0 -1.06,-0.04 -1.52,-0.14 l 0.24,-1.1 c 0.04,-0.26 0.06,-0.5 0.06,-0.74 0,-0.7 -0.3,-1.12 -1.12,-1.12 -0.66,0 -1.06,0.6 -1.16,1.78 -0.1,1.18 -0.18,1.82 -0.2,1.92 z" /></g>
</g>
<g
   id="e84cfb13-24a9-4bdb-8177-530a4e9d43eb"
   transform="matrix(1.02,0,0,1.02,526.48,267.5)">
<g
   id="g46"
   style="vector-effect:non-scaling-stroke">
		<g
   id="Layer_1"
   transform="matrix(1.5,0,0,1.5,-1.28,14.5)">
<path
   id="path31"
   d="M 49.072,44.738 27.133,59.883 c 3.138,7.839 10.355,13.604 19.025,14.673 v -7.603 h 5.486 v 7.642 C 60.61,73.621 68.07,67.643 71.161,59.511 Z m -0.69,19.244 h -5.67 v -5.669 h 5.67 z m 0,-6.951 h -5.67 v -5.67 h 5.67 z m 7.201,6.951 h -5.67 v -5.669 h 5.67 z m 0,-6.951 h -5.67 v -5.67 h 5.67 z"
   transform="translate(-49.15,-59.67)"
   style="opacity:1;fill:#3bb44a;fill-rule:nonzero;stroke:none;stroke-width:1;stroke-linecap:butt;stroke-linejoin:miter;stroke-miterlimit:4;stroke-dasharray:none;stroke-dashoffset:0" />
</g>
		<g
   id="g36"
   transform="matrix(1.5,0,0,1.5,3.57,6.69)">
<path
   id="path34"
   d="m 22.399,63.194 c 4.603,10.146 14.81,17.202 26.673,17.202 16.173,0 29.281,-13.108 29.281,-29.281 0,-5.701 -1.632,-11.018 -4.448,-15.517 L 63.645,40.686 69.069,17.55 91.517,26.857 83.77,30.7 c 3.532,5.987 5.566,12.961 5.566,20.414 0,22.238 -18.026,40.26 -40.265,40.26 -15.605,0 -29.134,-8.876 -35.823,-21.855 z"
   transform="translate(-52.38,-54.46)"
   style="opacity:1;fill:#58595b;fill-rule:nonzero;stroke:none;stroke-width:1;stroke-linecap:butt;stroke-linejoin:miter;stroke-miterlimit:4;stroke-dasharray:none;stroke-dashoffset:0" />
</g>
		<g
   id="g40"
   transform="matrix(1.5,0,0,1.5,-18.39,-16.99)">
<path
   id="path38"
   d="m 49.204,10.91 c -22.261,0 -40.311,18.047 -40.311,40.3 0,5.388 1.058,10.531 2.983,15.23 l 9.541,-6.117 c -0.94,-2.865 -1.445,-5.933 -1.445,-9.113 0,-16.141 13.082,-29.223 29.232,-29.223 5.657,0 10.937,1.607 15.408,4.396 L 66.584,14.84 C 61.322,12.319 55.429,10.91 49.204,10.91 Z"
   transform="translate(-37.74,-38.67)"
   style="opacity:1;fill:#3bb44a;fill-rule:nonzero;stroke:none;stroke-width:1;stroke-linecap:butt;stroke-linejoin:miter;stroke-miterlimit:4;stroke-dasharray:none;stroke-dashoffset:0" />
</g>
		<g
   id="g44"
   transform="matrix(1.5,0,0,1.5,-1.38,-15.13)">
<path
   id="path42"
   d="M 69.543,39.314 62,43.024 63.787,32.64 c -4.031,-3.224 -9.153,-5.146 -14.715,-5.146 -13.04,0 -23.618,10.575 -23.618,23.622 0,0.404 0.01,0.811 0.036,1.215 l 7.612,-5.229 v -6.866 l 3.407,-1.561 v 6.086 L 49.145,36.085 72.68,52.028 c 0.014,-0.302 0.02,-0.605 0.02,-0.913 -0.001,-4.3 -1.15,-8.332 -3.157,-11.801 z"
   transform="translate(-49.08,-39.91)"
   style="opacity:1;fill:#3bb44a;fill-rule:nonzero;stroke:none;stroke-width:1;stroke-linecap:butt;stroke-linejoin:miter;stroke-miterlimit:4;stroke-dasharray:none;stroke-dashoffset:0" />
</g>
</g>
</g>
</svg>